/* XPM */
static char *_ac00692576341f5c499c164a9cecd72UzWPDt0Jdi3FHULY[] = {
/* columns rows colors chars-per-pixel */
"64 64 240 2 ",
"   c #1C0E00",
".  c #2A1C00",
"X  c #322500",
"o  c #392A04",
"O  c #3D310A",
"+  c #3A3305",
"@  c #442B02",
"#  c #43350C",
"$  c #4C3D0B",
"%  c #483606",
"&  c #573B08",
"*  c #4B3C13",
"=  c #453911",
"-  c #533D12",
";  c #613D0C",
":  c #623F15",
">  c #52410D",
",  c #5A450D",
"<  c #5C480F",
"1  c #4D4215",
"2  c #4C441A",
"3  c #534313",
"4  c #5B4412",
"5  c #554A15",
"6  c #5C4A14",
"7  c #53441B",
"8  c #5A451B",
"9  c #544A1B",
"0  c #5C4C1B",
"q  c #5D521B",
"w  c #5A561C",
"e  c #4D410D",
"r  c #67470B",
"t  c #654B15",
"y  c #624D1B",
"u  c #67471A",
"i  c #64531C",
"p  c #6B541C",
"a  c #685719",
"s  c #74591D",
"d  c #71481C",
"f  c #6A601E",
"g  c #4E4522",
"h  c #5B4D23",
"j  c #594927",
"k  c #5C5323",
"l  c #5E5B24",
"z  c #5C542A",
"x  c #5E592B",
"c  c #5D5C30",
"v  c #644E23",
"b  c #6A4D28",
"n  c #645423",
"m  c #6B5523",
"M  c #655A24",
"N  c #6B5B25",
"B  c #63542B",
"V  c #6C542A",
"C  c #655B2C",
"Z  c #6C5C2B",
"A  c #725425",
"S  c #725C24",
"D  c #7A5D26",
"F  c #745429",
"G  c #735C2C",
"H  c #7B5C2D",
"J  c #7A5527",
"K  c #645B33",
"L  c #6B5C32",
"P  c #695533",
"I  c #735D33",
"U  c #7C5D33",
"Y  c #755D3A",
"T  c #765836",
"R  c #6E4F32",
"E  c #6C622C",
"W  c #676427",
"Q  c #746124",
"!  c #7B6325",
"~  c #74622C",
"^  c #7B632C",
"/  c #7C6A2D",
"(  c #74682C",
")  c #6D6233",
"_  c #6D6B31",
"`  c #736433",
"'  c #7B6433",
"]  c #756A34",
"[  c #7C6A34",
"{  c #75653D",
"}  c #7C643B",
"|  c #766A3A",
" . c #7C6C3C",
".. c #7D723C",
"X. c #7D6D41",
"o. c #7B6642",
"O. c #7E7144",
"+. c #825E33",
"@. c #805A29",
"#. c #83652E",
"$. c #846B2C",
"%. c #846629",
"&. c #816335",
"*. c #836C34",
"=. c #8A6D35",
"-. c #83643B",
";. c #836C3B",
":. c #8B6C3D",
">. c #8A6537",
",. c #956D3B",
"<. c #946B36",
"1. c #847135",
"2. c #83723D",
"3. c #8A733C",
"4. c #8C793D",
"5. c #8B7636",
"6. c #92733D",
"7. c #99713B",
"8. c #967A3C",
"9. c #856D42",
"0. c #8B6D43",
"q. c #866743",
"w. c #946E42",
"e. c #996F45",
"r. c #847442",
"t. c #8B7443",
"y. c #857943",
"u. c #8D7A44",
"i. c #8D754A",
"p. c #86794B",
"a. c #8D7C4A",
"s. c #84744A",
"d. c #927543",
"f. c #9A7642",
"g. c #937B44",
"h. c #9B7B44",
"j. c #93764A",
"k. c #9B7649",
"l. c #947C4A",
"z. c #9B7D4B",
"x. c #8B7D52",
"c. c #9C7E51",
"v. c #937E51",
"b. c #A27D45",
"n. c #A37E4B",
"m. c #A77B48",
"M. c #A37E50",
"N. c #8B8349",
"B. c #948247",
"V. c #9D8345",
"C. c #95824C",
"Z. c #9B834C",
"A. c #9E894C",
"S. c #9F8A47",
"D. c #8E8154",
"F. c #958353",
"G. c #9C8452",
"H. c #9D8B54",
"J. c #9C855A",
"K. c #9C8B5B",
"L. c #968659",
"P. c #9E925C",
"I. c #AA8447",
"U. c #A3834C",
"Y. c #AB844C",
"T. c #A38A4D",
"R. c #AB8A4D",
"E. c #A28346",
"W. c #B28B4E",
"Q. c #B1854B",
"!. c #A38553",
"~. c #AA8554",
"^. c #A38B54",
"/. c #AB8B54",
"(. c #A48C5A",
"). c #AC8D5A",
"_. c #A3875D",
"`. c #B38D53",
"'. c #B88E53",
"]. c #B38D5A",
"[. c #B58A57",
"{. c #A59155",
"}. c #AC9255",
"|. c #A4925C",
" X c #AC935B",
".X c #AE9959",
"XX c #B39255",
"oX c #BB9356",
"OX c #B3945B",
"+X c #BB945B",
"@X c #B49A5C",
"#X c #BB9A5C",
"$X c #9C8E61",
"%X c #9E9165",
"&X c #A68D61",
"*X c #B18F61",
"=X c #A49463",
"-X c #AC9463",
";X c #A69963",
":X c #AC9A65",
">X c #AB9B6A",
",X c #B39663",
"<X c #BC9662",
"1X c #B49A63",
"2X c #BC9B62",
"3X c #B49C6B",
"4X c #BA9D6C",
"5X c #B69669",
"6X c #AEA26C",
"7X c #BDA163",
"8X c #B6A16B",
"9X c #BCA36B",
"0X c #B8A673",
"qX c #C2955D",
"wX c #C29A5D",
"eX c #C39761",
"rX c #C39C63",
"tX c #C99D64",
"yX c #C49F6A",
"uX c #CA9F69",
"iX c #C3A265",
"pX c #CAA265",
"aX c #C5A46A",
"sX c #CBA46B",
"dX c #CBAA6C",
"fX c #C3AA6A",
"gX c #D1AA6C",
"hX c #D0A467",
"jX c #C4AA74",
"kX c #CCAC72",
"lX c #C6A776",
"zX c #D5AC71",
"xX c #D3B474",
"cX c #D9B879",
"vX c #C7B07A",
"bX c #E1BB7E",
"nX c #D1B787",
"mX c #DDC482",
"MX c #E5C384",
"NX c #EDC995",
/* pixels */
"A A J +.w.c.k.e.} G m 4 J U 0.+.e.e.<.@.+.7.f.:.&.G I ] ` 2 X # 7 V v - - - j b F v v V $ * 8 L 0.G.i.& } _.i.} b 8 B j B j j j ",
"U A : : J >.q.+.F.U v y F G 0.m.M.M.m.e.,.m.m.7.d.:.9.;.X.P O # Y } U b b u : : b b v R V } I v j.lX+.-.z.A % F V R -.} Y v j - ",
"F A u b J &.' V F.Z 4 > m A 0.M.[.qXM.7.>.<.7.e.e.k.j.-.q.Y * @ 9.0.-.U +.>.U T J F F +.q.M.9.u ,.hXf.Y.`.J ; &.,.z.!.!.j.m d - ",
"N ' :.0.0.d.:.;.t.Z 5 $ Z } c.~.*XqXm.,.<.<.m.M.~.).!.d.0.U % @ w.0.+.J +.+.+.+.0.+.U j.z._.0.F s b.`.<.7.%.<.<.h./.b.n.6.J @.; ",
"~ ;.u.t.t.g.B.C.C.( M i ;.u.H.!.4X+XY.7.<.,.h.b.M.M.z.j.t.} h v :.0.>.+.+.0.>.>.:.+.+.j.G._.} r <.Q.[.7.b.<.7.7.w.].f.n.k.d.,.; ",
"u.l.l.u.l.^.P.C.N.E w M ..[ 2.d.OX XT.g.f.8.6.6.!.Z.Z.l.l. .N  .y A U ' 0.w.q.+.0.:.:.G._.-XG o e.nXb.n./.:.d.j.,.!.j.c.n.G.&.% ",
"u.l.B.g.l.!.Z.u...w w q Z p S ^ 5.1.4.4.g.B.C.C.|.^.H.N.r.E q ) ~  .2.r.u.l.9.' *.[ ..C.H.H.E @ :.nXt.G._.0.l.v.v.&Xv.$XL.J.} 8 ",
"i S m t & y m m i M Z q N N ' S ( Q W E a a i m p M M i M w 5 M M N i 0 M Z m i $ % $ Z W C 5 > - * * * * . # * * * O = O * X X ",
"^ ^ u p u & m y Q ] [ E t 6 4 , y , q i > t 6 t N [ i ~ M w w i N m i ] ' m ' ~ S y G G E ( N ] 7 j L L P # o X O o o X . X O O ",
"Z.G.z.j.z.U.).|.[ N E 3.B.B.!.4XvX9XA.Z.4.A.H.f.p 4.l.l.3.4.H.|.C.l.t.g.j.w.d.D ' =.l.4.t.F.(.0X0X=Xi.a.x.X.` X.x.x.L.v.s.x.$XD.",
"-X-X).z.z.).G.Z.l.~ ( C.(.Z.).lXlXlX~.).~.].5Xn.u ,.4X].z.A.).).!.~.n.n.M.*X~.+.@.k.).!.M.!._.lXvX-XZ.-X).G.H ' c.G.(.!.Z._.&XJ.",
"_.Z.l.d.z.!.Z.t.` i Z a.G.t.z.5XyX~.M.<X].w.e.M.; J 5XU.f.h.E.V.c.k.w.w.n.M.k.J d k.).M.c.z.z. X1X,X!./.z.=.s H z.d.d.:.6.h.z.d.",
"G ' Z *.;.G &.G Z W )  .r.1.' ' >.:.e.d : 0.0.e.>.H k.+.Q ! 1.1.:.U ' :.j.M.k.,.U k.f.&.' F m A ^ 3.h.t.g.=.&.:.3.^ J A p p J D ",
" .G.l.(.l.G r.2.` ] ] ..L.6X,Xc.z.5XlXb 0.NXnX4X5X_.C.*./ ( / 1.;.G 9.v._.&X-X3X*X0X-XK.G.r.` W I t.=X|.0X-X=XC.H.C.F.a.' G ;.a.",
"3 C I ` G 0 Z Z _ ) C W ] r. .G ] n m % v } n V E ` C W W l W W W 9 W W Z W C ` n C l W _ l l 9 K C z 7 z 0 * # B L o.) h h C C ",
"0 n G N Z  .E Z C k M C M 0 y n 6 i 3 X % 9 9 $ 5 ] n ( l f l W W w _ W w M q M Z M 9 l l w _ c C z # * # 1 # 2 = h K B B ) ) 7 ",
"H G G G N ] | m C ' A G :.*.&.8./.f.6.% D T.g.6.^ #.#.D S ! 1.1._ i y.Q i ~ *.*.*.' ' Q M W ) l ) )  .Z ' | ` Z } V R C v Z C b ",
"w.=.=.[ N M ` Z *.g.f.f.U.z.6.n.`.U.I.& =.@XA.E.b.m.b.h.8.h.V.A.B.M ] p t D 6.!.U.!.Z.u.t.[ M Z ` [ 2.G } [ H G -.' ' ` m Z  .| ",
"U.z.h.u.Q M ( t.t.^.).~.]./.U./.+X+X/.r 8.4X/.OX~.m.m.~.Y.h.E.!.P.N ..2.4.6.U.,X/./._.Z.J.y.q Z ` 2.3.Z :. .G ' ' 9.:.r.V n r.r.",
"~.h.U.G.2.Z 1.^.j.).].U./.`.`./.rXuX].& <.4XXXaX+X[.W.[.].Y.E. XH.W u.^. X}.].OX/.Z.!.Z.G.l.n M ~ t.t.N r.:.' ;.' t.t.v.G 0 9.9.",
"m.h.b.^.g.^ 1.|.z./.).Y.R.@XwXoXuXgXqX; 5.rXOXdXrX[.[.eX+X~.T.1X^.N 4.Z.).,X<X,X<XU.]._.l.C.9.i ~ r.t.Z t.t.' :.&.j.i.F.' y r.r.",
"I.h.h.^.B.S ^ ^.g./.].`.XXwXwXoXyXsXuXr 8.aX<XyX+X[.Q.qX+XI.U.OX{.S *.g./.2X2X+X<Xn.)./.d.G.G.n Z 2.u.~ t.t.:.0.:.t.t.l.I m t.a.",
"`.Y.E.T.V.Q ^ {.V./.#XoXW.oXoXoXtXuXuXr 5.aX4XrXeX[.qXtXqXY.Y.OX^.m ;.V.OXyX2X<X[.Y.n.).^.!.(.N N *.l.' t.l.t.t.9.:.t.t.G n 9.a.",
"+X`.R./.B.! *.@XR.XXwXoXQ.W.W.oXtXeXeXr $.aXiXwXeXqXeXuXeXW.Y. X^.p *.U.5XrX<X<X].<Xn.<X4X^._.' N ' g.[ 4.l.z.t.:.;.l.j.G m ' i.",
"oXW.R.@XT.! 5.}.R.I.XXwX'.'.oXW.tXeX@Xr s dX#XfXwXqXqXtXhXqXY.oX@Xt 4.U.U.U.b.m.M.7.m.~.lX^._.' N ' ^.[ l.G.!.d.:.t.j.u.G y l.t.",
"oX'.W.@XE.Q / T.}.}.+XwX'.'.oXoXrXeX+Xr s 7XiXwXpXeXeXqXuXeX`.2X X6 d././.].'.rX<X[.~.f.!.z.G.;.S ~ C.*.Z.l.G.d.:.t.j.t.G y a.t.",
"W.W.R.XXT.f / A.@X`.'.+X'.oXwXwXgXpXrXr %.W.fXW.Q.Q.m.m.`.oX/.XX/., g.}.).+X<XuX<X<X].V.U.H.!.' m ^ ^.l.^.j.j.Z.t.t.j.t.G y a.t.",
"I.I.E..XT.Q Q 8.XXR.I.`.'.W.oXwXpXdXrXa r %.V.8.Q.m.Q.qXqXpX+XXX}.6 V.,X`.+X<XrX+XrX].].^.).c.N i *.G.C. X!.Z.z.d.d.z.l.G y l.t.",
"W.I.E..XT.S a *./.E.h.I.'.'.XX#XW.E.%.r %.@XfXwXwXwXtXqXtXhX+XXXT., E.4XOXrXaXuXyX<X/./.^.H.g.N p 3.4.;.^./.G.d.d.d.l.l.' m l.t.",
"W.R.E..X{.! ! 4. XU.b.R.oXoXXXwXMX7X=.a E.mXfX@XtXwXrXoX+XrX`.}.A., !.9X).2XuXyXuX+X~.`.,X!.l.Q i Z.l.*.g.l.Z.!.d.d.l.d.^ y u.t.",
"I.Y.E.}.H./ 1.A.@X}.Y.XXwXoXW.pXzXkX7Xf 8.fX@XdXwXrXtXoX+XwXXX7XT., ^.9X/.OXeX+X2X[.oX).2XG.C.G i H.^.B.Z.d.z.!.Z.j.l.g.H y a.t.",
"n.U.V.T.8.Q ..T.2XOXXX+XiXXXW.gXcXcXdXr S.xX@X7XrXwXwXqXwX#XoX9X{.< {.9X/.#XaXtXeXOXOXV./.t.g.p S Z.B.!.1X/.6.:.!.!.z.d.G y a.t.",
"f.n.!.V.S.f V..X XXX+XuXwXoXpXwXxXxXwX%.S.cXfXgXwXtXqXqX+X2X<X,X|.S B.OX^.2XpXeXwX+X+XXX XC.B.N *.A.{.!.OX<XY.h.f.z.!.!.' y ` y.",
"h.T./.}.{.f 8.XX/.OX`.`.I.#XxX#XfXwXW.f W.mXxXgXzXhXtXwX+X`./. X1X[ Z.9XXXiXdXpXpX+X+XXX XZ.G.Q / Z.{.^.@X4XoX/.U.U.!.Z.' 0 ) p.",
"k.U./.}.{.a 5..XXX`.I.`.<.XXfXXXoX7X#X! S.cXcXmXbXhXtXtXeX+X}.7X|.S Z.2XXXrXsXpXgXpX2XOX1X^.^.D Q S.{.T.@XrXyXyXOX]./.G.' 0 | N.",
"Y.I.R.}.{.a 5.XX XR.W.cXI.W.XXXXXXfXfX$.S.xXcXMXbXhXwXwXeX2X7X7X^.S T.lX2XsXgXhXcXgXiXOXOX^.H.~ ( T.}.{.1XaXaXsX2X,X).G.' q | a.",
"R.R./..X.Xf 5.R.XXW.wXNXoXI.XX#X.XXX.Xf S.mXmXmXzXgXpXwX#X#XW.V.Z.p V.lX4XsXzXgXcXgXuX+XXXT.!.^ ^ T..X{.#XaXiXiXOX/.!.z.~ 0 ` p.",
"/.`.XX#XoXa $.S.R.XXhXMX'.I.oXXXXX.XW.%.8.xXcXxXhXgXwXwXoX#XR.5.h.t h.aX#XrXgXxXgXpXeX+X,X/.^.S Q S..X}.#XaXrX2X/./.T.B.~ y ] y.",
"W.XX7X7X.Xs 5.}.W.XXwXpXW.I.oXXXR.@X7X! 5.fXfXhXwXwXpXwXwXwX#X}.^.A V.dX<XtXzXbXsXrX+X`.OXOX/.s S S..X}.@X#XOX#XXX/.Z.z.` q | a.",
"@XiXfX7X.Xf S.fXXXXXW.wX'.W.#X@XR.W.oXf $.fXfXW.wXwXwXwX#X#XiXkX Xs h.4X/.[.sXcXzXeX@X[.1X,X^.p s A.@X.X}.}.}.@X}.!.B.g.G 0 | a.",
"iXXX@X9X}.1.5.@XXX}.R.R.W.XXXXoXW.T.).D $.U.fXW.rXwX'.qXwXwXrXkX,Xt 6.2XU.<X`.2XrX<Xh.2XV.OXG.^ a B.{.{.}./.T.}.V.g.Z.t.~ M Z p.",
"XX^.}.@XS...5..X}.XX`.R.XXXX@XOX`.Y.OXD &.8.iX#X2XwX'.qXqXtXrXaXkXi :.9X^.OX~.].XXU.h.2X!.,X(.S a B..X{.{.A.S.!.V.u.t.] M C l ..",
"!.!./.{.4./ 5.{.T.^.U.Y.R./.XXXXOX~.,XJ %.*.@X7X@X+X].<XoXrX<X,X3X4 *.3X^.,X-X X_.h.(.0X^. X|.p Q B.H.S.B.B.B.u.C.a.[ i M M k E ",
"g.Z.H.l./ E / N.T.^.^.^./. X X Xz.:.U.p ( Q {.1XE./.[.oX].<X].).H.6 4.:Xl.).-X!.d.G.8X,XK.^.=X[ [ N.P.B.B.B.B.y.B.a.] q C x h z ",
"t.l.C.t.] E ] 1.g.l.h.z.Z.Z.A.!.|.C.A.Q / f ..4.B.{./.,XOX9X5X-XH.0 2.K.a.t.r.[ t.:X0Xy.C.C.y.E ] 1.y.1.1.y.3.( ....C k C c z k ",
"U ;.9.' _ E ` ` t.t.g.j.f.j.C.G.^.B.B.W ] i a W [ 4.4.l.l._.K.J.u.e k r.r.E V m a.=XH.Z O.O.Z q E W Z W N W Z q M M w l x z c x ",
"n V Z C C E W n n V m A V m G ~ Z Z W f _ _ W _ M N n G G { `  .E 5 l Z | n n C ` ` Z 9 | r.E E ] W W ] W Z E M M k z K 2 2 c c ",
"' ' | | .... .` N G m m m G ~ [ [ ......N.N._ ....| ~ | ` ' ] X.C  .a.C V k C Z | n B n E ) M ) [ Z E  .~ Z ] ] | W W _ 1 + x c ",
"B.|.:X9XH./ u.H.^.H.|.:X9XfX@X8X|.P.F.a y.jX(.|.K.>XJ.v.H.-X5X4X3Xv &XnX(.-XvX:X=X8X3X:XC.Z.H.S *.g.C.C.-XN.2.a.r.Z ` v.] V  .z ",
"N ! Q ! D S ^ [ E Q Q ( ..1.$.S M Z W < S 5.^ G ' } Y C G H &.=.' - Y l.G G 9.' a.l.l.4.[ *.3.N m 2.t.~ ;.' ~ G  .m m I 8 * C y ",
"( *.( *.3.;.*.N N q i ( S S D p Q ] / *.*.S ^ m n I I C n y t p y V Z ~ V m G 0 6 y Q n i m i i n ' ' i m i q n n - 9 h 8 h 8 7 ",
"H.H.H.Z.!.(.-X(.] > ( K.^.Z.^.9X|.P.|.9X.X).1X_.0 9.K.(.=X-X2X9X^.0X3X>X:X:X:Xa.y  .|.H.H.;XP.6X3X|.P.F.F.C C X.O.| p.p.L.%XO. .",
"g.a.Z.(.,X3X-X>X..5 u.;X|.(.Z.lX8X(.8X9XOX1X|.g.8 a.>X$XK.(./.^.-X6X6X|.P.:X8Xy.N y.:X;X;X6XP.P.6XK.K.%XP.L L p.p.s.x.X.x.D.o.{ ",
"3.^ *.t.c.G.0.t.N e O.a.a.(.z.1XZ.3.^.^.h.V.*.6 $ { p.X.2.u.4.3.u.4.1./ N 1.N.a 6 M 4.N.P.0X6X6X0X;X;XH.D.C Z L n K ) L K C z c ",
"N , & @ % 4 - y Z M M 0 4 , & & 6 < t A p p p & m ) C l n N a i Q i a 6 , q i 6 N 0 q Z M k M 9 1 $ e e 5 5 n 0 * 9 0 z z 9 g k ",
"S [ l.3.:.z.3.2.2. .6 Z ] m ^ ^ j.Z.=.f.=.S d.[ 9.` B Z O.t.4.4.1.1.4./ *.*.S *.*.S Z r.~ 0 ` ` ] M E n N Z  .' t. .n ` L k L h ",
"g.C.). X(.^.^.|.K.~ q E H.N {.@XlXlXg.h.).T.:X-X%X$X7 . ..|.^..X{.T.XX@X XOX3X X,X8X>X(.;.0 ` &XnX|.{.:X3X X(.0X-X(.F.J.l.a.X.$ ",
"8.g.g.h.V.G.G.Z.N.i q i A.1.T. X-X).).:.U.^.^.K.=X$X9 . | |.-X3X@X@X4X1X/.).).).].&X&X&X:.8 ] :X0X X{.{.(.^.z._.!.v.a.i.r.a. .o ",
"g.4.3.g.!.!.z.r.a.M M q |.B.l.^.&X,X,X!.).!.G.F.D.p.2 X X.|.-X X XOX,X/.).)./.).*X*X&X>Xs.6 } >X0X8X1X^.T.!.j.f.j.k.t.:.;.t.' o ",
"B.u.t.j.M.H.j.9.2.M 0 5 F.3.*.l._.-Xw.4X^.z.a.l.o.L = X  .(.(.!.d.T.z.z.).~.M.!.*X*X*X5X9.8 ` =X6X.X|.!.!.!.c.c.z.c.d.0.9.;.V o ",
"!.l.0.-.-.q.0.s.9.C # 5 H.] ;.0.v.M.-.4X).!.J.F.{ K O . Y J.*X,Xd.G.z.k.~.~.k.k.!._.&X_.G 1 ) O...[ r.l.c.J.j.c.c.c.j.x.9.) B # ",
"i.t.0.-.T T U q.X.B X j L.X.i.9.j.0.c.j.c._.F.s.K K O . { J.J.).G.!.!._._._.c.j.j.c._.i.n 1 C ) q 8 I r.j.s.+.0.i.i.q.s.o.z j 7 ",
"} +.q.T T R T Y P g O 7 o.L { } 9.T 0.G -. .o.n j K O . } i.q.d.v.l.v.F.c.c.c.w.i.i.a.r.h 2 C k k 7 C  .o.Y R P T o.o.Y P g g g ",
"T T R R R R R Y j j z j j h R q.T U b &.U v Y j z K o   P 9.F :.9.9.t.t.} -.9.-.0.9.r.O.w 2 c 9 z h B Y Y P R R R Y P P z g g g "
};
