/* XPM */
static char *_9681_6f829d7db88a73112332d516c5bd68ad8f9e6425176b0aac2ce063d7d271141e[] = {
/* columns rows colors chars-per-pixel */
"64 64 187 2 ",
"   c #050200",
".  c #0D0906",
"X  c #14130E",
"o  c #191109",
"O  c #130F10",
"+  c #131412",
"@  c #1A1A16",
"#  c #1D1E1B",
"$  c #1A1712",
"%  c #20190F",
"&  c #241E15",
"*  c #201E1B",
"=  c #1E201F",
"-  c #26221E",
";  c #2A241E",
":  c #242422",
">  c #2B2926",
",  c #2E2D2B",
"<  c #332D24",
"1  c #302E2A",
"2  c #392F23",
"3  c #33312C",
"4  c #3C352B",
"5  c #3C382F",
"6  c #3C3324",
"7  c #353432",
"8  c #393632",
"9  c #3C3A35",
"0  c #373938",
"q  c #3C3C3C",
"w  c #363835",
"e  c #413E3A",
"r  c #433D35",
"t  c #3F403B",
"y  c #43413C",
"u  c #4A453D",
"i  c #444037",
"p  c #454442",
"a  c #4A4643",
"s  c #4B4A45",
"d  c #4D4C4A",
"f  c gray28",
"g  c #514D45",
"h  c #524F4B",
"j  c #584F4A",
"k  c #4F504B",
"l  c #53514D",
"z  c #5A554C",
"x  c #575146",
"c  c #4E5251",
"v  c #545452",
"b  c #595652",
"n  c #575854",
"m  c #5C5955",
"M  c #575958",
"N  c #5D5C5A",
"B  c #585659",
"V  c #645C4F",
"C  c #625C54",
"Z  c #615E5B",
"A  c #5E605D",
"S  c #656057",
"D  c #64625D",
"F  c #6A655D",
"G  c #6D695E",
"H  c #71695E",
"J  c #615F60",
"K  c #656462",
"L  c #696663",
"P  c #666865",
"I  c #6B6965",
"U  c #696768",
"Y  c #6D6C6A",
"T  c #646869",
"R  c #726D65",
"E  c #726E6A",
"W  c #6E706E",
"Q  c #747167",
"!  c #74726D",
"~  c #79746C",
"^  c #7D796E",
"/  c #7A7466",
"(  c #6B6F70",
")  c #716F70",
"_  c #6F7170",
"`  c #757472",
"'  c #7A7672",
"]  c #777874",
"[  c #7C7975",
"{  c #7B7778",
"}  c #777978",
"|  c #7D7C7A",
" . c #757678",
".. c #827D75",
"X. c #887F76",
"o. c #817E7A",
"O. c #7F807D",
"+. c #848176",
"@. c #8A8375",
"#. c #8F8876",
"$. c #84827D",
"%. c #8A857D",
"&. c #8C897F",
"*. c #90897F",
"=. c #7F7E80",
"-. c #817F80",
";. c #7F8180",
":. c #858482",
">. c #898682",
",. c #878884",
"<. c #8C8A85",
"1. c #8B8689",
"2. c #868A8A",
"3. c #8D8C8A",
"4. c #928D85",
"5. c #918E8A",
"6. c #8F908C",
"7. c #949186",
"8. c #9C9687",
"9. c #94928D",
"0. c #9A948C",
"q. c #9C988E",
"w. c #8A8E90",
"e. c #918F90",
"r. c #8D9191",
"t. c #959492",
"y. c #999692",
"u. c #969896",
"i. c #9C9A95",
"p. c #939799",
"a. c #95999A",
"s. c #9D9D9A",
"d. c #A0978E",
"f. c #A29B8E",
"g. c #A29D95",
"h. c #A29E9A",
"j. c #9FA09B",
"k. c #A5A197",
"l. c #A4A29D",
"z. c #AAA59C",
"x. c #ADA99F",
"c. c #AFA393",
"v. c #B2A796",
"b. c #B2A99C",
"n. c #B6AA9C",
"m. c #BCB19F",
"M. c #9FA1A0",
"N. c #A5A5A2",
"B. c #A9A6A2",
"V. c #A7A9A4",
"C. c #ACAAA4",
"Z. c #ADACAA",
"A. c #B1ACA5",
"S. c #B2AEAA",
"D. c #BCAFA6",
"F. c #AFB0AB",
"G. c #B3B1A5",
"H. c #BCB3A4",
"J. c #B4B2AC",
"K. c #BBB5AD",
"L. c #BCB9AF",
"P. c #B5B4B1",
"I. c #BAB6B1",
"U. c #BCBAB4",
"Y. c #BDBCBA",
"T. c #B7B8B2",
"R. c #C4BAAE",
"E. c #C3B9AA",
"W. c #C2BCB4",
"Q. c #C1BEBA",
"!. c #CBBEB5",
"~. c #CCC2B5",
"^. c #C4C2BC",
"/. c #CAC4BB",
"(. c #C9C5BA",
"). c #D2CABC",
"_. c #CDCBC5",
"`. c #CCCBC8",
"'. c #C6C5C1",
"]. c #D8CFC0",
"[. c #D1CFCA",
"{. c #D1CBC4",
"}. c #D5D2CC",
"|. c #DAD4CA",
" X c #D6D5D2",
".X c #E1DED7",
"XX c #E4E3DF",
/* pixels */
"r / C.9.$.<.:.| _ _ v Y U.I C ~ L.l.<.y.U.T.i.S.N.C.R.1.C 0.^ D s i v y.3.] ] $.-.t.s.N.S.5.~ h.i.y.' t.$.d v s n v Y K W a.;.W ",
"~ 7.h.E ` 6.2.;.Y } W N.] I 8 e J.,.+.F.z.l.E o.y.I.C...%.%.F Q C.h.| <.N.| o.2.3.3.2.S.l.>.1...4.} L E P I D ] l A P Y Y ;.;.A ",
"m R 4.I <.<.:.,.} $.Y _ } F.l.y <.$.s.B.] o.3 . * < ~ E m %.8.i.[.B.N.<.N.s.| 2.1.t.h.a.y.N.X.L ' E s D 6.P ,.i.,.} | Y } T _ N ",
"& l <.R <.,.} I W O.W Y Z.N.<.N ,.<.l.$.` :.o.! B a ' ' I C.z.C.h.g.l.9.Z.h.| t.e.5.t.M.N.y.J R <.$.U >.,.] i.6.s.`.j.:. .Y ( M ",
"h v Y 9.s.u.6.y.O.D :.j.U.6.A W t.] I P i.9.N.N.h.5.t.i.Z.C.$.0.l.6.l.y.N.p.1.t.>.3.V.s.' ' E 1.U.I 6.s.<.B.l.] | [. Xv w T P P ",
"w.N K F.i.:.Y m 1 W j.F.Y.2.A _ ,.K l ] Z.t.s.t.o.m 9.9.y.<.<.s.Z.u.C.:.F.t.M K { p d L o...) o.m ] j.<.9.u.t.$.,.t.:.| J Y B P ",
"} d T 3.a : D F - s.j.Y.M.2. .T 3.D T }.P.2.i.s.) B S.<.y.i.9.s.N.t.a.s.C.| B > -.` : $ J y.o.- > l.,.O.9.,.| ! ;.` 1.} ] N A K ",
"( v W v a D  X~ - l.V.F.p.r.p.r.C.b N  Xs.9.N.h.E } C.| 5.9.9.V.Z.3.t.s.t.>.T 7 E { e.-.y.{ L | 9.9.9.s.9.+.| | | ,.:.| 1.f N c ",
"T c d n ! B.Y.~ u I G.V.j.r.w.r.l.P l.XXZ.<.u.2.K N.V.<.9.u.j.l.s.t.u.2.s.s.Y 7 | 3.>.t.3.5.= f I ,.y.<.] D <.U >.:.o.3.K q o.t.",
"J P v | } j.y.%.} t j.V.r.a.p.p.l.y.j. XB.6.u.l.Y K ] $.l.u.j.j.N.t.l.:.t.| _ d ] M.U o.U B d Z ] t.3.} Y 9.y.K t.] t.| y f t.Z.",
"( ;.] | ,.G.N.$.3.! j.j.j.r.r.V.l.~ 9 E <.:.U ' T D } i.9.] l.A.V.V.t.( u.| Y Z T :.B ` J J v 3.<.I i.] $.<.:.| M.2.Y ` J [ 3.1.",
"t.s.] ! 3.s.9.<.s.l.3.t.N.V.j.M.| 1 9 ~ $.m l I m o.^.<.v s.T.s.F.V.{ ` t.| N ` <.L Z ` Y -.T q ,.a ! y.2.<.<.| 1.: a ! Z { N.) ",
"<.I S <.t.C.j.2.t.Z.:.s.F.O.,.A D C J.^.i.E 5.1.` | I.>.l | z.6.t.M.( ( N.t.N | N.B K ` 3.} Y : K Z t.:.o.) K 5.C J 1.y.E ` 5.J ",
"' I +.l.i.l.s.W | K , ] P | | I C i.A.g.1.I 4.o.o.s.t.L U ' F.j. .2._ A :.:.U o.>.U >.d q T B 3.] 9.1.Y o.m y -.L d.-.l.E ~ 1.C ",
"Q 7.<.! U p 7 v M = U | D | +.D ..D.h.d.h.C [ g.' 4.E a ! i.s.s.w.p.3.= O P t.:.D :.] 3.f 9  .1.v U s.t ) -.y.) j ..e.e.1.9 a >.",
"x R C Z q p w c :.p.] ! Z ' g.Q @.g.g.7.y.F 4.t.>.$.I [ ] 6.:.| { 2.:.B ] r.] ' :.! :.<.2.a.3.=.] U s.U e.) ` J o.) y.g.' 3 ....",
"- >.N.i.) U : c ` M.2.T L ~ h.F V d.8.&.q.~ <.N.o.E [ h.4.E ` Y ) 1.( ` t.} Y 3.o.| <.3.3.t.<.$.E F J.| ' K <.! u.! 9.9.m [ i.i.",
"m P.Q.u.N.t.e B Y | ` E ' ! R C H #./ H F ! <.s...m E 1.e.c 0 B Y J B :.| 1.1.m ] t.:.| 9.! Y ] d F S.l s ] W ! u.9.O.9.I $.~ 0.",
"' <.i.3.| <.d N ` N v W L s y.g.c.D.%.4 3 %...k.E j Z 4.L N s 5.E w.] N :.| K D | :.:.o.2.S 9.| y $.J.<.| Y  .3.V.N.t.[ D ! o.0.",
"Y | o.! U T ` p v 9.m 3.a <.{.5.8.f.&.g ~ J.! 7.R V V / R E I -.Y | Y D O.U U B s o.N T ! N D >.l 5.z.o.i.` | t.N.O.v N R 9.[ 5.",
"O.U +.P N ! O.k j.J.i.T.5.9.J...i.x.%.u &.z.+.z H H X.n.W.E...' L ' m Y ' B ! v B 2.' | U f Z ` I h.<.K 9.P d t.Y D N k Z <.I R ",
"k.P l F P | O.l Z.t.t.J.+...J.g.0.g.<.k ,.7.G F !.m.].E.R.z...R $.L ] D d K s.] B 5.K N.N.s.| B L i.3.s.G.| # t.:.N I m Y U m I ",
"} ! A A O.m l l G.3.u.G.! | J.<.[ y.V.m ~ x.^ f.].m.!.R.z.{.0.E T.l.i.h o.2.2.5.N 3.Y e.1.1.` Z I 5.Z $.2.Y m 5.:.| Y N ] U l ] ",
"9.$.i 6.i.m G A T.i.C.s.~ ~ C.5.4.5.s.F k G.x.).!.E.n.c.R.!.d.H ^.9.Y U >.' >.:.J 3.-.s.Y e.) Y I Z B D m p Y ` O.D U ! <.l l l ",
"u.Q ] l.6.3.J.D l.y.,.~ +.d q.' { { U s t F.x *.E.f.m.v.E.D.X.j A.t.U N R +.s.U K 9.` { 2.-.U | y 0 d 1 , : -.p.3. .3.-.| o.B   ",
",.n 6.t.i.3.| s O.9.~ Q q.i I Q E h 3.B.l.7.O.8.v.b.v.m.!.v.2 o <.] ] Y I t.N.] N U K { =.} } J -.V.{ e.e.) -.e.) U | { | 2.! @ ",
"D v O.! +.D D y R <.! ' O.s } +.L K C.h.C.q.A./ @.#.6 6 r ..' C ' m K >.p.s.i.K v | | ` ` U U h Z.s.) 1.N.) > ) 1.L ) 3.$.} | K ",
"n c ! A K C Z 9 8 | +.3.u.l.l.! Z t.l.h.F.6.j.G < O.u o & G W.o.9.s.[ m ' s.` K , 3 B U h | Y K a.Y h ) y.1.d  .T Y | 1.<.p.i.6.",
"= w K k D A D 8 9 I 4.C.l.s.<.! a R V.F.6.i.V.W o G +.4.k.s.9.<.u.e.L -.7 > q f B ] Z s.j.~ n ~ e.Y | 3.-.e.B ) =.J ) -.p.e.] 2.",
"+ t W A O.P ! I $.Q >.y.9.` U I Q %.x.l.u.6.j.Y t *.A.l.<.9.s.,.4.3.t.w.B s :.Z.Z.5.t.T.j.W s $.:.| w.=. .J p ) -.B J Y 2.5.} 3.",
"f M O.M %.K 8 o.! 9.9.>.<.! D I R <.&.q.6.,.Y.k A 7.t.j.v 6.N. .-.-.:.| U -.Y.l.2.o.9.T.+.} k Y U :.| U -.B f U =.B U U :.9.:.O.",
"p _ P M O.3   ! <.<.' 5.$.U Y [ S G j.k.,.l.V.P O.+.q.[ P 9.:. .1.) J Y Y Y.Y.| | h.T.3.6.K I s.= q v U  .B O Y { B J N _ <.2.P ",
"O.<.] 4.o.F ....%.5.0.4.X.$.>.<.[ D g.9.<.z.A.<.E >.g.%.| ] :.t.{ ) J K 5.h.T.P.M.e.s.M.-.j I.Z.: Z h.1.X.m   C E B C C { g.! E ",
"<.<.<.Z.<.E 4.g.4.g.4.4.4.4.' Q F E ~ E o.A.7.F %.h.h.5.o.o.t.| T Y K ' :.' Y.Z.o.) -.-.J -.S.C R Q.B.z.h.W.C...g b z L 1.J 1.E ",
"O.y.S.0.4.o.0.7.4.*.%.%.! j N I $.,.0.%.C ..i.F o.%.s [ N g.:.Z J E ' E R ~ $...j j J f U -.h.~ 1.g...g.h.A.h.....-.h.h.l.< r -.",
"6.l.A.i.0.%.b.Q Q ..0.5.5.I %.I $.$.9.I >.I.B.9.a C A.S.E -.| q 8 I >.u l.9.9 y e.y.-.j J ..X.C ..5.h.D.h.9.0.F X.-.X.h.h.j 4.g.",
"k.x.L.,.Q 4.%...X.g.d.4.l.<.9.K F } %.~ D z.g.' ~ ' C.C.o.{ s h O.G j.7.L.G.7.S W.y.S.B.e.H C -.h.0.z.0.0.g.i.~ X.E 1.1.-.E D.S.",
"+.+.&.+.R ..X.F Q g.4.g.<.<.5.D K ] ,.D j I g.0.Z ..z.9.' E [ 5.O./ @.k.G.8.^ %.A.h.y.h.g...B.F ..g.1.~ y.g.g.%.-.~ 9.X.0.L I.C.",
"i < z &./ V ..F 1.J.>.t.Y t.l.A a d P G l E I E E | 4.1.$.~ o.>.^ S k.K.G.*.+./ y.......-.R -.z.S.C.<.8 C D ' I.X.e j o.1.Z e.h.",
"/ ..% C d.R 4./ 4.B.R <.$.s.i.N l $.B.:.T < g.y.E Z 4.4.L ' y.o.+.O.q.@.Q +.7.D ....J X.-.o.W.[.I.7.4.F i.0.^.U.o.s j -.A.I.~ -.",
"8.f...d.*.K.g.R 0.y.I 5.:.C.3.K D s.F.j.,.! `.'.<.U R y z l.5.>.q.Q ..S F G E R 5.5.) Z J J B.A.B.~ [ E 0.S.I...1.E C.l.S.B.B -.",
"F ^ / *.f.E.7.*.R 4.%.g.3.T.:.B A j.$.J.<.W G.Z.h.3.$ m ^.N.N.W.%.D ! A.S.C.g.[ S.B.e...) j D.h.l.o.9...5.0.>.E 4...l.J.B.-.j d.",
"..*.S q.D.g.4.d.b o.0.z.3.N.] K F ,.V.V.W Y V.F.<.N e Y.J.i.h.>.I Z ! A.g.C.g.{ S.e.y.-.y.) i.i.$...<.v g.t.>.1.>.o.S.Z.B.-.J h.",
"../ H V v.d.4.4.y ..l.i.| i.` v > F j.u.l ] s.r.L ' v 3.i.h.5...[ ` 5.N.t.B.4.' N.e.-.-.-.e.) -.E I ' C A.u.' >.[ E Z.o.4.E Z e.",
"K.C.0.~ h.*...X.x ~ Z.9.] l.! v = - W P 3 :.s.| <.U ! C.S.....h.1.Z ~ h.N.g.L E B.-.-.-.y.-.-.R.J.5.! o.y.h.h.' ~ J B.-.-.J J h.",
"K.W.k.A.*...R z m R J.9.| l.P ! j.6.u.j.t.P d r.Z.] K J.o.[ S.<.I ' ` y.5.y.~ U y.-.-.e j ) -.S.B.5.y.%.y r L Z U Z o.y.X.R U 0.",
"k.g.C.4.' g.g.*.g @.J.<...j.I ] l.6.,.6.t.O.@ 0 1.B E I.-.S.0.R L J l h.N.t.! L -.-.-.J -...-.h.S.S.<.C.B r h.h.h.-.-.X.R H Z j ",
"k.L.A.7.d.X.~ X.D q.4.X.>.<.I $.9.] ,.,.6.W :.,.:.h v ) R X.Z r $ a ` h.~ j F :.-.B.o...e.o.y.C.J.y.h.I.C Q.I.A.-.J X.B { -.e.Z ",
"z.K.q.8.k.%.[ / I ! C I ' E R o.2.| :.2.6.] j.I O.t.x.3.9 # ] B r E.{.z.%.Q ..o.C.I.' ! i.$.B.l.9.$.l.y.,.U.t.t.,.Y ,., Z.V.i.$.",
"G.z.&.+.4.~ i ; i +.B...R j & B ;.| ;.r.t.<.j.I k.4.A.i.! | M.:.C D.d.d.z.Q g.g.h.0.I e E [ o...D E z ] :.Z.r.` p.s.} d `.J.y.$.",
"m G I m z &.m &.l J.z.$...E d.y.} O.O.O.O.6.6.^ <.X.<.$.$.$.6.<.L !.d.A.g.H D.D.g.0.U m l...>.' >.0.! :.k.C.W $.i.<.! S ^.y.9.~ ",
"O.n G z $.' 7.<.~ l.z.X.X.l.y.o.! O.,.O.,.V.%.] y.%.$...y.| u.$.' !.g.c.0.R z.c.%.X.C ..C.9.J.[ ' ~ >.h.$.l.A 9.Z.9.$.} J.B.4.E ",
"V z ] q.9.j.l.I ~ z.g.<.1.i.E o.O.&.O.F 6.x.O.Q 0.F y.h.h.I F.y.R b.g.0.B.C d.h.E ' C 7.l.h.<.[ 4.[ %.G o.<.I ' [ 9 9.z 4.J.4...",
"A A l.T.l.9.R I [ Z.k.i.' X.C E O.O.O.O.q.O.O.@.>.Q h.h.7.g B.] Z R.X.b.f...X.g...' R 5.5.$.E <.<...$.I 3 m o.I.l.l.>.D 5.4.! ' ",
"t ] z.l.7.D A D +.9.N R m [ ~ R Y P A Q O.O.G A <.%.g.C.%.- Q ~ r X.0.h.7.C ~ ~ %.R ..d.4.0.q.~ [ D I U ] <.$.s.:.i.t.5.! m F ! ",
"P O.,.6.I W I I 9.<.5 F ..z.0.h.q.G k t u O.A X $.4.A.4.U R 0.<.4.X.X...F R K.D.0.' j 1.0.T.+.I ' ' 9.! 9.$.t.B.T.3.] ! 7 ] 9.u.",
"E T t.s.E Z D L 9.9.Q 4.l.k.i.l.D.<.9.J.T.Y.,.X z g.Q R *.j.8.j.z.*.~ ~ d.d.h.g.&.n G Q q.i.~ O.O.6.Y } :.1.M.N.T.5.| W ;.;.3.j.",
"h K 5.| N N ] S <.9.<.$.l.G.q.f.5.7.' l.V.V.] Q J.^.>.[ k.x.j.G.d.X.W.D...4.*.4./ z O.8.7.&.0.%.;.| } M.` :.N.j.| 2.3.U 2.| ;.6.",
"v d I ! :.[ >.C.s.F k.F q.G.q.~ >.b ~ A.9.q.] 6.J.Z.q...k.G.x.&.0.7.R.7.+.X.<.X.z %.k.z.G.G.7.F u.| u.:.v  .t.l.t.Z.t.K } } w.W ",
"m N | ! i.' %.9...$.<.Q <.&.[ G ..g >.N.3.O.O.j.S.B.8.O.L.k.*.&.A.g.h.X.R %.~ & g 0.L.(.G.L.<.Q 2.p.u.A A ,.<.s.N.C._ ` 6.3.a.M ",
"z D C 9.' b 4.5.Z g.4.Q +.^ %.+.L E E ..-.) p.N.N.S.C.d.W.g.7.<.G.&.&.^ J.G.5 - R g.~.|.x.7.4.J.9.9.W ! o.>.E 3.h.s.L ] l.| N p ",
"D | [ i.o.5.C.4.%.&.k.4.q.R [ &.....C ` -.a.Z.s.N.S.g.4.J.0.4.H.+.< ~ i.L.A.z F +.L. X|.g.7.).U.l.O.O.' %.y.[ $.4.o.~ F $.T N U ",
"l.9.A.I ' 4.%.R ~ 0...R Q 4.H.z.X.X...-.y.^.M.Z.B.B.h.5.0.C.8.&.z Q q.A.z.k.S *.z (.|.b.z.R.|./.`.o.<.....G u F X.[ ..F ^ | [ ' ",
"z.<.J...Z ..! ~ &.S C R ..k.(.4.-.X.-.e.h.U.Z.B.S.e.i.0.Q +.~ +.<.q.z.k.k.g.S ^ C f.g.q.x.).R._.W.^.4.R R C V G X.@.C R g.s.%.~ "
};
